<?xml version="1.0" encoding="UTF-8"?><svg id="Layer_2" xmlns="http://www.w3.org/2000/svg" viewBox="0 0 31.22 31.22"><defs><style>.cls-1{fill:#5d7e6a;stroke-width:0px;}</style></defs><g id="Layer_1-2"><path class="cls-1" d="m15.61,0c-4.24,0-4.77.02-6.44.09-1.66.08-2.79.34-3.79.73-1.03.4-1.9.93-2.77,1.8-.87.87-1.4,1.74-1.8,2.77-.39,1-.65,2.13-.73,3.79-.08,1.67-.09,2.19-.09,6.44s.02,4.77.09,6.44c.08,1.66.34,2.79.73,3.79.39,1.04,1.01,1.99,1.8,2.77.78.79,1.72,1.41,2.77,1.8,1,.39,2.13.65,3.79.73,1.67.08,2.19.09,6.44.09s4.77-.02,6.44-.09c1.66-.08,2.79-.34,3.79-.73,1.04-.39,1.99-1.01,2.77-1.8.79-.78,1.41-1.72,1.8-2.77.39-1,.65-2.13.73-3.79.08-1.67.09-2.19.09-6.44s-.02-4.77-.09-6.44c-.08-1.66-.34-2.8-.73-3.79-.39-1.04-1.01-1.99-1.8-2.77-.78-.8-1.72-1.41-2.77-1.8-1-.39-2.13-.65-3.79-.73-1.67-.08-2.19-.09-6.44-.09Zm0,2.81c4.17,0,4.66.02,6.31.09,1.52.07,2.35.32,2.9.54.73.28,1.25.62,1.8,1.17.55.55.88,1.07,1.17,1.8.21.55.47,1.38.54,2.9.07,1.65.09,2.14.09,6.31s-.02,4.66-.1,6.31c-.08,1.52-.33,2.35-.55,2.9-.25.68-.65,1.29-1.17,1.8-.5.52-1.12.92-1.8,1.17-.55.21-1.39.47-2.91.54-1.66.07-2.15.09-6.32.09s-4.66-.02-6.32-.1c-1.52-.08-2.36-.33-2.91-.55-.68-.25-1.29-.65-1.79-1.17-.52-.5-.92-1.12-1.17-1.8-.21-.55-.47-1.39-.55-2.91-.06-1.64-.08-2.15-.08-6.3s.02-4.66.08-6.32c.08-1.52.33-2.36.55-2.91.27-.74.62-1.25,1.17-1.8.55-.55,1.05-.9,1.79-1.17.55-.22,1.37-.47,2.89-.55,1.66-.06,2.15-.08,6.32-.08l.06.04Zm0,4.78c-1.05,0-2.1.21-3.07.61-.97.4-1.86.99-2.6,1.74-.74.74-1.33,1.63-1.74,2.6-.4.97-.61,2.01-.61,3.07s.21,2.1.61,3.07c.4.97.99,1.86,1.74,2.6.74.74,1.63,1.33,2.6,1.74.97.4,2.01.61,3.07.61,2.13,0,4.16-.84,5.67-2.35,1.5-1.5,2.35-3.54,2.35-5.67s-.84-4.16-2.35-5.67c-1.5-1.5-3.54-2.35-5.67-2.35Zm0,13.22c-2.87,0-5.2-2.33-5.2-5.2s2.33-5.2,5.2-5.2,5.2,2.33,5.2,5.2-2.33,5.2-5.2,5.2Zm10.21-13.54c-.02.48-.22.94-.57,1.28-.35.34-.82.52-1.3.52s-.95-.19-1.3-.52c-.35-.34-.55-.8-.57-1.28,0-.5.2-.97.55-1.32.35-.35.83-.55,1.32-.55s.97.2,1.32.55c.35.35.55.83.55,1.32Z"/></g></svg>