<?xml version="1.0" encoding="UTF-8"?><svg id="Layer_2" xmlns="http://www.w3.org/2000/svg" viewBox="0 0 31.22 31.22"><defs><style>.cls-1{fill:#5d7e6a;stroke-width:0px;}</style></defs><g id="Layer_1-2"><path class="cls-1" d="m26.6,26.61h-4.62v-7.24c0-1.73-.04-3.95-2.41-3.95s-2.78,1.88-2.78,3.82v7.37h-4.62v-14.9h4.44v2.03h.06c.62-1.17,2.13-2.41,4.38-2.41,4.68,0,5.55,3.08,5.55,7.1v8.18ZM6.94,9.67c-.35,0-.7-.07-1.03-.2-.33-.13-.62-.33-.87-.58-.25-.25-.45-.55-.58-.87-.13-.33-.2-.68-.2-1.03,0-.53.16-1.05.45-1.49s.71-.79,1.21-.99c.49-.2,1.03-.26,1.55-.15.52.1,1,.36,1.37.74s.63.85.73,1.38c.1.52.05,1.06-.15,1.55-.2.49-.55.91-.99,1.2-.44.29-.96.45-1.49.45Zm2.32,16.94h-4.64v-14.9h4.64v14.9ZM28.91,0H2.3C1.03,0,0,1.01,0,2.25v26.72c0,1.24,1.03,2.25,2.3,2.25h26.6c1.27,0,2.31-1.01,2.31-2.25V2.25c0-1.24-1.04-2.25-2.31-2.25h0Z"/></g></svg>