<?xml version="1.0" encoding="UTF-8"?><svg id="Layer_2" xmlns="http://www.w3.org/2000/svg" viewBox="0 0 31.22 31.3"><defs><style>.cls-1{fill:#5d7e6a;stroke-width:0px;}</style></defs><g id="Layer_1-2"><path class="cls-1" d="m15.63,0C7,0,0,7,0,15.63c0,6.62,4.12,12.28,9.93,14.56-.14-1.24-.26-3.13.05-4.48.29-1.22,1.83-7.77,1.83-7.77,0,0-.47-.94-.47-2.32,0-2.17,1.26-3.8,2.83-3.8,1.34,0,1.98,1,1.98,2.2,0,1.34-.85,3.35-1.29,5.21-.37,1.56.78,2.82,2.31,2.82,2.78,0,4.91-2.93,4.91-7.16,0-3.73-2.69-6.35-6.53-6.35-4.45,0-7.05,3.34-7.05,6.78,0,1.35.51,2.79,1.16,3.57.13.16.15.29.11.45-.12.49-.38,1.56-.44,1.78-.07.29-.22.35-.52.22-1.95-.9-3.17-3.75-3.17-6.06,0-4.92,3.58-9.46,10.33-9.46,5.42,0,9.64,3.87,9.64,9.03s-3.4,9.73-8.13,9.73c-1.58,0-3.07-.82-3.6-1.8l-.98,3.71c-.35,1.36-1.31,3.07-1.95,4.1,1.46.45,3.01.7,4.63.7,8.62,0,15.63-7,15.63-15.63S24.21.03,15.59.03l.04-.03Z"/></g></svg>