<svg id="Layer_2" xmlns="http://www.w3.org/2000/svg" viewBox="0 0 151.23 156.96"><defs><style>.cls-3,.cls-4{fill:#5c7d69;stroke-width:0}.cls-4{fill:#ed6c1a}</style></defs><g id="Layer_1-2"><path d="M114 60.57v45.9H68.04c-25.36 0-45.92-20.56-45.92-45.92s20.56-45.92 45.93-45.92S114 35.2 114 60.57Z" style="fill:none;stroke:#ed6c1a;stroke-width:29.25px"/><ellipse class="cls-3" cx="68.06" cy="60.55" rx="12.17" ry="12.15"/><path class="cls-4" d="M4.12 144.89c.38 2.14 1.76 3.21 4.15 3.21 1 0 1.91-.1 2.74-.3.84-.22 1.7-.55 2.59-.99l.87 3.18c-.94.52-1.93.92-2.98 1.2-1.02.26-2.15.39-3.4.39-2.53 0-4.51-.68-5.95-2.04-1.42-1.38-2.13-3.36-2.13-5.94s.68-4.45 2.04-5.85c1.38-1.4 3.27-2.1 5.65-2.1 2.2 0 3.94.63 5.2 1.89 1.26 1.26 1.89 2.97 1.89 5.13 0 .66-.05 1.4-.15 2.22H4.12Zm3.61-5.85c-2.02 0-3.23 1.01-3.61 3.03h6.98c-.12-1.06-.45-1.83-.99-2.31s-1.33-.72-2.38-.72ZM45.48 151.05c-.9.36-1.8.54-2.71.54-1.28 0-2.23-.35-2.86-1.05-.62-.72-.93-1.92-.93-3.6v-4.32c0-1.16-.2-1.99-.6-2.49-.4-.5-1.07-.75-2.01-.75-1.24 0-2.34.52-3.28 1.56.02.2.03.51.03.93v9.39h-4.18v-8.64c0-1.16-.2-1.99-.6-2.49s-1.07-.75-2.01-.75c-1.26 0-2.4.57-3.4 1.71v10.18h-4.18v-10.71c0-.44-.1-.76-.3-.96-.2-.2-.52-.3-.96-.3-.34 0-.62.03-.84.09l-.21-3.18c.92-.36 1.82-.54 2.71-.54s1.57.16 2.13.48c.56.3.97.8 1.23 1.5.66-.62 1.43-1.1 2.32-1.44.9-.36 1.82-.54 2.77-.54 2.2 0 3.76.77 4.66 2.31.66-.72 1.46-1.28 2.41-1.68.94-.42 1.92-.63 2.95-.63 1.88 0 3.28.53 4.18 1.59.92 1.06 1.38 2.6 1.38 4.62v4.83c0 .46.1.79.3.99.2.18.52.27.96.27.36 0 .65-.03.87-.09l.18 3.18ZM56.97 135.65c1.34 0 2.55.31 3.61.93 1.06.6 1.89 1.5 2.5 2.7.6 1.18.9 2.61.9 4.29s-.29 3.07-.87 4.29c-.56 1.2-1.37 2.12-2.44 2.76-1.06.64-2.3.96-3.7.96-1.54 0-2.93-.46-4.15-1.38v6.75h-4.18v-16.42c0-.44-.1-.76-.3-.96-.2-.2-.51-.3-.93-.3-.36 0-.65.03-.87.09l-.21-3.18c.92-.36 1.82-.54 2.71-.54 1.68 0 2.79.61 3.31 1.83 1.38-1.22 2.93-1.83 4.63-1.83Zm-.63 12.34c1.08 0 1.92-.36 2.53-1.08.6-.72.9-1.83.9-3.33s-.3-2.54-.9-3.24c-.6-.72-1.44-1.08-2.53-1.08-1.32 0-2.5.59-3.52 1.77v5.22c.46.52.97.94 1.53 1.26.56.32 1.22.48 1.98.48ZM94.91 150.69c-.7.34-1.33.57-1.89.69-.56.14-1.2.21-1.92.21-3.43 0-5.14-1.67-5.14-5.01v-7.23h-2.59v-3.36h2.68l.27-3.87h3.82v3.87h4.3v3.36h-4.3v6.6c0 .7.13 1.21.39 1.53.28.32.74.48 1.38.48.3 0 .67-.04 1.11-.12.44-.08.86-.21 1.26-.39l.63 3.24ZM115.33 151.05c-.92.36-1.82.54-2.71.54s-1.57-.15-2.14-.45c-.54-.3-.95-.79-1.23-1.47a8.15 8.15 0 0 1-2.5 1.41c-.92.34-1.84.51-2.77.51-2.03 0-3.5-.53-4.42-1.59-.9-1.08-1.35-2.65-1.35-4.71v-5.91h-2.25v-3.3c.66-.06 1.66-.09 3.01-.09h3.4v8.64c0 1.14.22 1.97.66 2.49.46.5 1.14.75 2.04.75.64 0 1.31-.15 2.01-.45.72-.32 1.29-.73 1.71-1.23v-6.78h-2.22v-3.36c.88-.04 1.84-.06 2.89-.06h3.55v10.72c0 .46.1.79.3.99.2.18.51.27.93.27.36 0 .65-.03.87-.09l.21 3.18ZM134.6 151.05c-.92.36-1.82.54-2.71.54-.82 0-1.5-.14-2.04-.42-.54-.3-.96-.76-1.26-1.38-1.36 1.2-2.92 1.8-4.66 1.8-1.4 0-2.64-.32-3.7-.96-1.06-.64-1.88-1.56-2.47-2.76-.56-1.22-.84-2.65-.84-4.29s.3-3.11.9-4.29c.6-1.2 1.43-2.1 2.5-2.7 1.06-.62 2.26-.93 3.61-.93 1.52 0 2.92.48 4.18 1.44v-3.84h-1.83v-3.03c1.58-.08 3.59-.12 6.01-.12v16.6c0 .46.1.79.3.99.2.18.52.27.96.27.36 0 .65-.03.87-.09l.18 3.18Zm-10.04-3.06c.76 0 1.42-.16 1.99-.48.58-.34 1.1-.77 1.56-1.29v-5.16c-.46-.54-.97-.97-1.53-1.29-.56-.34-1.23-.51-2.01-.51-1.08 0-1.92.36-2.53 1.08-.6.7-.9 1.78-.9 3.24s.3 2.61.9 3.33c.6.72 1.44 1.08 2.53 1.08ZM140.56 144.89c.38 2.14 1.76 3.21 4.15 3.21 1 0 1.91-.1 2.74-.3.84-.22 1.7-.55 2.59-.99l.87 3.18c-.94.52-1.93.92-2.98 1.2-1.02.26-2.15.39-3.4.39-2.53 0-4.51-.68-5.95-2.04-1.42-1.38-2.13-3.36-2.13-5.94s.68-4.45 2.04-5.85c1.38-1.4 3.27-2.1 5.65-2.1 2.2 0 3.94.63 5.2 1.89 1.26 1.26 1.89 2.97 1.89 5.13 0 .66-.05 1.4-.15 2.22h-10.52Zm3.61-5.85c-2.03 0-3.23 1.01-3.61 3.03h6.97c-.12-1.06-.45-1.83-.99-2.31s-1.33-.72-2.38-.72Z"/><path d="M79.66 143.45v5.92H73.7a5.94 5.94 0 0 1 0-11.88c3.28 0 5.96 2.67 5.96 5.95Z" style="stroke-width:3.76px;fill:none;stroke:#ed6c1a"/><circle class="cls-3" cx="73.71" cy="143.44" r="1.57"/></g></svg>